<?xml version="1.0" encoding="utf-8"?>
<!-- Generator: Adobe Illustrator 22.1.0, SVG Export Plug-In . SVG Version: 6.00 Build 0)  -->
<svg version="1.1" xmlns="http://www.w3.org/2000/svg" xmlns:xlink="http://www.w3.org/1999/xlink" x="0px" y="0px"
	 viewBox="0 0 245.8 245.8" style="enable-background:new 0 0 245.8 245.8;" xml:space="preserve">
<style type="text/css">
	.st0{fill:#FFFFFF;}
	.st1{fill:#F05068;}
</style>
<g id="Layer_4_xA0_Image_1_">
	<g>
		<path class="st0" d="M94.4,82.3c-0.6,0-1.3,0-1.9,0c0-13,0-26.1,0-39.1c20.5,0,40.9,0,61.4,0c0,13,0,26.1,0,39.1
			c-19.7,0-39.4,0-59.1,0c1.3-1.4,2.6-2.7,4-4.2c1.1,0.9,2.1,1.8,3.3,2.5c0.5,0.3,1.3,0.1,2,0.1c-0.1-0.6-0.1-1.4-0.5-1.8
			c-0.9-1-2.1-1.8-3.3-2.7c1.6-1.8,3.1-3.5,4.6-5.2c5.4,3.2,10.8,3.5,16.3,0.8c0.9-0.4,1.6-0.4,2.5,0c4.9,2.4,9.8,1.7,14.5-0.3
			c1.7-0.7,2.8-2.3,4.7-0.4c1.8,1.8,3.9,3.3,6.2,5.2c-1.7,0.1-2.9,0.1-4.1,0.4c-0.6,0.1-1.1,0.7-1.6,1.1c0.5,0.4,1.1,1.1,1.6,1.1
			c2.3,0,4.5-0.2,6.8-0.2c1,0,1.6-0.5,1.5-1.5c-0.1-2.2-0.1-4.3-0.4-6.5c-0.1-0.6-0.7-1.5-1.1-1.5c-1-0.1-1.2,0.7-1.2,1.6
			c0,1.2,0,2.3,0,3.9c-2.7-2.6-5.2-4.9-7.5-7.1c0.5-1.1,0.9-2.2,1.4-3.2c2-4.1,1.8-8.2-0.3-12.2c-4-7.6-13.4-10.5-21.3-6.4
			c-0.9,0.5-1.5,0.5-2.5,0c-10.1-4.9-23.1,2.5-22.4,13.9c0.2,3.8,2.3,6.8,4.5,10.1c-1.3,1.5-2.7,3.2-4.1,5c-1.2-0.9-2.2-1.8-3.3-2.6
			c-0.7-0.5-1.5-1-2.1-0.1c-0.3,0.4,0.1,1.5,0.5,1.9c0.9,0.9,2,1.7,3.1,2.6c-1,1.1-1.8,2.2-2.7,3.2C93,80.8,93.1,81.6,94.4,82.3z"/>
		<path class="st1" d="M94.4,82.3c-1.3-0.7-1.4-1.5-0.4-2.6c0.9-1,1.8-2.1,2.7-3.2c-1.1-0.9-2.2-1.6-3.1-2.6
			c-0.4-0.5-0.8-1.5-0.5-1.9c0.5-0.9,1.4-0.4,2.1,0.1c1,0.8,2.1,1.6,3.3,2.6c1.5-1.8,2.8-3.4,4.1-5c-2.2-3.3-4.3-6.3-4.5-10.1
			c-0.6-11.4,12.4-18.8,22.4-13.9c0.9,0.5,1.6,0.4,2.5,0c7.8-4.1,17.2-1.2,21.3,6.4c2.2,4.1,2.3,8.1,0.3,12.2
			c-0.5,1.1-0.9,2.1-1.4,3.2c2.3,2.2,4.7,4.5,7.5,7.1c0-1.6,0-2.8,0-3.9c0-0.9,0.2-1.7,1.2-1.6c0.4,0,1.1,1,1.1,1.5
			c0.2,2.2,0.2,4.3,0.4,6.5c0.1,1.1-0.5,1.5-1.5,1.5c-2.3,0.1-4.5,0.3-6.8,0.2c-0.5,0-1.1-0.7-1.6-1.1c0.5-0.4,1-1,1.6-1.1
			c1.1-0.2,2.3-0.2,4.1-0.4c-2.3-1.9-4.3-3.5-6.2-5.2c-1.9-1.8-3-0.3-4.7,0.4c-4.7,2-9.6,2.7-14.5,0.3c-0.9-0.4-1.6-0.5-2.5,0
			c-5.5,2.7-10.9,2.5-16.3-0.8c-1.5,1.7-3,3.4-4.6,5.2c1.2,1,2.4,1.8,3.3,2.7c0.4,0.4,0.3,1.2,0.5,1.8c-0.7,0-1.5,0.2-2-0.1
			c-1.2-0.7-2.2-1.6-3.3-2.5c-1.4,1.5-2.7,2.8-4,4.2C94.6,82.3,94.5,82.3,94.4,82.3z M119.4,69.6c-2.4-3.3-4.4-6.5-4.4-10.9
			c-0.1-4.4,1.8-7.6,4.4-10.8c-6-3.1-12.7-1.2-17.1,4.3c-3.6,4.5-1.7,12,4,16.8C109.5,71.7,116.8,72,119.4,69.6z M124.9,69.3
			c4.4,2.8,12,1.2,15.8-3.5c3.9-4.9,3-11.9-1.9-16.5c-4.4-4.2-11.9-3.8-14.7-1.3C131.6,55.3,129.4,64.2,124.9,69.3z M121.8,49.4
			c-2.2,1.7-3.4,3.8-3.9,6.3c-1.1,4.5-0.1,8.4,3.5,11.5c0.3,0.3,1.2,0.4,1.3,0.3c1-1.2,2.3-2.3,2.8-3.7c0.8-2.2,1.2-4.5,0.8-6.9
			C125.8,53.9,124.4,51.4,121.8,49.4z"/>
		<path class="st0" d="M119.4,69.6c-2.6,2.4-9.9,2.1-13-0.5c-5.7-4.8-7.7-12.3-4-16.8c4.4-5.5,11-7.5,17.1-4.3
			c-2.6,3.2-4.5,6.4-4.4,10.8C115,63.1,117,66.3,119.4,69.6z"/>
		<path class="st0" d="M124.9,69.3c4.5-5.2,6.7-14-0.7-21.3c2.8-2.5,10.3-2.9,14.7,1.3c4.8,4.6,5.8,11.6,1.9,16.5
			C137,70.5,129.3,72.2,124.9,69.3z"/>
		<path class="st0" d="M122,49.4c2.7,2,4.1,4.5,4.7,7.5c0.4,2.4,0,4.7-0.8,6.9c-0.5,1.4-1.8,2.5-2.9,3.7c-0.1,0.2-1.1,0-1.4-0.3
			c-3.8-3.1-4.8-7-3.7-11.5C118.5,53.2,119.7,51.1,122,49.4z"/>
	</g>
</g>
<g id="Rectangle_2_xA0_Image_1_">
	<g>
		<path class="st1" d="M54.8,202.7c-1.9,0-3.9,0-5.8,0c-0.1-0.6-0.2-1.1-0.2-1.7c0-18.9,0-37.9,0-56.8c0-6.2,0-12.5-0.1-18.7
			c0-0.5-0.2-1.3-0.5-1.5c-1.9-1-2.8-2.6-3.4-4.5c0-0.3,0-0.6,0-0.9c0.1-0.3,0.2-0.7,0.3-1c0.7-2.8,3.9-4.8,6.6-4.2
			c2.6,0.6,4.2,2.1,4.6,4.6c0.4,2.3-0.4,4.4-2.7,5.7c-0.3,0.2-0.7,0.7-0.7,1c-0.1,2.5,0,4.9,0,7.5c46.8,0,93.5,0,140.3,0
			c0-2.1-0.1-4.1,0-6.1c0-1.2-0.2-1.9-1.3-2.7c-2.3-1.5-2.9-4.7-1.6-7.1c1.3-2.4,3.9-3.5,6.7-2.7c2.1,0.6,3.6,2,3.9,3.9
			c0.4,1.9,0.3,4.1-1.7,5.4c-1.4,0.9-1.8,2-1.8,3.6c0.1,8.8,0,17.6,0,26.4c0,16,0,32,0,48.1c0,0.6-0.1,1.1-0.2,1.7
			c-1.9,0-3.9,0-5.8,0c0-6.8,0-13.6,0-20.4c-45.6,0-90.9,0-136.4,0C54.8,189.2,54.8,195.9,54.8,202.7z"/>
		<path class="st0" d="M197,202.7c0.1-0.6,0.2-1.1,0.2-1.7c0-16,0-32,0-48.1c0-8.8,0.1-17.6,0-26.4c0-1.6,0.4-2.7,1.8-3.6
			c2-1.3,2.1-3.5,1.7-5.4c-0.4-2-1.9-3.3-3.9-3.9c-2.7-0.8-5.4,0.4-6.7,2.7c-1.3,2.4-0.7,5.6,1.6,7.1c1.1,0.7,1.4,1.5,1.3,2.7
			c-0.1,2,0,4,0,6.1c-46.8,0-93.5,0-140.3,0c0-2.5,0-5,0-7.5c0-0.4,0.4-0.8,0.7-1c2.3-1.3,3.1-3.3,2.7-5.7c-0.4-2.4-2.1-4-4.6-4.6
			c-2.7-0.6-5.9,1.4-6.6,4.2c-0.1,0.3-0.2,0.7-0.3,1c0-6.2,0-12.4,0-18.6c52.3,0,104.5,0,156.8,0c0,34.2,0,68.5,0,102.7
			C200.1,202.7,198.6,202.7,197,202.7z M176.5,131.3c0-10.3,0-20.4,0-30.5c-35.7,0-71.4,0-106.9,0c0,10.3,0,20.4,0,30.6
			c1.5,0,2.9,0,4.3,0c1.4,0,2.8,0,4.4,0c0.1-1.1,0.2-2.1,0.2-3.1c0-1-0.1-2,0-3c0.2-3.8,2-6,6.4-6c11.1,0.1,22.3,0.1,33.4,0
			c3.2,0,4.6,0.7,5.3,4.4c0.4,2.2,0.3,4.5,0.4,6.8c0,0.4,0.1,0.9,0.2,1.3c0.2,0,0.3,0,0.5-0.1c0-1.8-0.1-3.7,0-5.5
			c0.1-1.5,0.5-3,1-4.5c0.5-1.6,1.8-2.3,3.6-2.3c12,0,23.9,0,35.9,0c2.5,0,5,2.4,5,4.7c0,2.4,0,4.8,0,7.3
			C172.3,131.3,174.3,131.3,176.5,131.3z"/>
		<path class="st0" d="M54.8,202.7c0-6.8,0-13.5,0-20.4c45.5,0,90.8,0,136.4,0c0,6.8,0,13.6,0,20.4
			C145.7,202.7,100.3,202.7,54.8,202.7z"/>
		<path class="st0" d="M44.7,119.5c0.6,1.9,1.5,3.5,3.4,4.5c0.3,0.2,0.5,1,0.5,1.5c0.1,6.2,0.1,12.5,0.1,18.7c0,18.9,0,37.9,0,56.8
			c0,0.6,0.1,1.1,0.2,1.7c-1.4,0-2.8,0-4.2,0C44.7,175,44.7,147.3,44.7,119.5z"/>
		<path class="st1" d="M176.5,131.3c-2.2,0-4.2,0-6.4,0c0-2.5,0-4.9,0-7.3c0-2.4-2.5-4.7-5-4.7c-12,0-23.9,0-35.9,0
			c-1.8,0-3.1,0.7-3.6,2.3c-0.5,1.5-0.8,3-1,4.5c-0.2,1.8,0,3.7,0,5.5c-0.2,0-0.3,0-0.5,0.1c-0.1-0.4-0.1-0.9-0.2-1.3
			c-0.1-2.3,0-4.6-0.4-6.8c-0.7-3.6-2.1-4.4-5.3-4.4c-11.1,0.1-22.3,0.1-33.4,0c-4.4-0.1-6.2,2.2-6.4,6c-0.1,1,0.1,2,0,3
			c0,1-0.1,2-0.2,3.1c-1.6,0-3,0-4.4,0c-1.4,0-2.8,0-4.3,0c0-10.2,0-20.4,0-30.6c35.6,0,71.2,0,106.9,0
			C176.5,110.8,176.5,121,176.5,131.3z"/>
	</g>
</g>
<g id="Layer_5_xA0_Image_1_">
</g>
</svg>
