<?xml version="1.0" encoding="utf-8"?>
<!-- Generator: Adobe Illustrator 22.1.0, SVG Export Plug-In . SVG Version: 6.00 Build 0)  -->
<svg version="1.1" id="Layer_0_xA0_Image_1_" xmlns="http://www.w3.org/2000/svg" xmlns:xlink="http://www.w3.org/1999/xlink"
	 x="0px" y="0px" viewBox="0 0 626 584" style="enable-background:new 0 0 626 584;" xml:space="preserve">
<style type="text/css">
	.st0{fill:#FEFEFE;}
	.st1{fill:#FFFFFF;}
	.st2{fill:none;}
</style>
<g>
	<path class="st0" d="M348.1,139c5.7,0,10.5-4.7,10.6-10.4c0.1-5.2-5.2-10.5-10.5-10.6c-5.4-0.1-11.1,5.6-10.9,10.8
		C337.5,134.5,342.4,139,348.1,139z M270.7,141c5.9,0,9.6-3.8,9.5-9.7c-0.1-5.3-4.1-9.3-9.5-9.3c-5.6-0.1-9.7,4-9.7,9.6
		C261,137.3,264.8,141,270.7,141z M304.7,95c-5.3,0-9.6,4-9.7,9.1c-0.1,5.3,4.4,9.8,9.6,9.9c5.1,0.1,9.4-4.3,9.4-9.5
		C314,99.1,310,95,304.7,95z M340.5,108c4.8,0.1,8.3-3.3,8.3-7.9c0-3.8-4.3-7.9-8.3-7.9c-3.5,0-7.4,4.2-7.6,7.8
		C332.8,104.7,336,107.9,340.5,108z M395.4,148c4.8,0,8.1-2.8,8.3-7.2c0.2-4.2-3.5-7.8-8-7.8c-4.3,0-7.7,3.2-7.8,7.3
		C387.8,145.4,390.3,148,395.4,148z M296.4,170.1c0.1,3.8,3.5,6.9,7.2,6.6c3.2-0.2,6.3-3.8,6.3-7.2c-0.1-3.5-3.2-6.5-6.8-6.5
		C299.4,162.9,296.3,166.2,296.4,170.1z M304.4,131c-3.6,0.4-5.8,2.6-6.2,6.3c-0.3,3,3.4,6.5,6.3,6.5c3,0,6.7-3.5,6.3-6.5
		C310.5,133.7,308.8,131,304.4,131z M285.3,150.9c-3.6,0.4-6.3,1.3-6.4,5.5c0,3.9,1.5,6.4,5.7,6.6c3.7,0.2,6.4-2.4,6.4-6
		C291,153.2,288.7,151.4,285.3,150.9z M333.8,145.1c-4.1,0-7.7,3.3-6.6,6.4c0.9,2.4,3.7,5.4,6,5.8c2.9,0.5,6.1-1.9,5.9-5.8
		C339.1,147.7,337,145.3,333.8,145.1z M374.4,134c3.9,0.3,5.6-2.2,5.4-5.4c-0.2-3-1.9-5.6-5.6-5.6c-3.7-0.1-5.7,2.2-5.7,5.4
		C368.4,131.8,370.3,134.4,374.4,134z M262.2,161.2c-4.8,0.6-6.9,3-6.5,5.9c0.3,1.9,3.3,4.6,5,4.6c1.8,0,4.5-2.8,4.9-4.8
		C265.9,165.3,263.4,163.1,262.2,161.2z M365.3,161.2c-0.8,0-1.6,0-2.4-0.1c-1.3,1.9-3.8,3.9-3.5,5.5c0.3,2,3,3.5,4.6,5.3
		c1.7-1.7,4.4-3.2,4.7-5.1C368.9,165.2,366.5,163.1,365.3,161.2z M355.8,179c-2.6-2.3-4.4-4.9-5.6-4.6c-1.9,0.4-3.4,2.7-5.1,4.2
		c1.6,1.7,2.9,4,4.9,4.7C351.1,183.6,353.1,181.1,355.8,179z M393.8,160.1c-2.3,2.8-4.8,4.7-4.5,5.9c0.4,1.9,2.8,3.3,4.3,4.9
		c1.5-1.5,3.8-2.9,4.1-4.5C397.9,164.9,395.8,163,393.8,160.1z M297.1,193.2c1.9-2.9,3.9-4.6,3.7-5.9c-0.3-1.6-2.2-3.8-3.8-4.1
		c-2.5-0.4-4.6,1.3-3.9,4.2C293.5,189.1,295.1,190.4,297.1,193.2z M371.5,152.7c0-0.7,0.1-1.3,0.1-2c-1.4-1-2.9-3-4.1-2.8
		c-1.4,0.2-3.2,2.1-3.6,3.6c-0.2,0.7,1.9,3.1,3.2,3.3C368.5,155,370.1,153.5,371.5,152.7z"/>
	<path class="st1" d="M98,507c3.9-0.2,7.8-0.8,11.6-0.6c9.3,0.6,18.6,1.7,27.9-1.2c7-2.2,12.4-6.7,15.3-12.9c4.2-9,7.3-18.5,10.5-28
		c4.8-14.5,9.5-29.2,13.9-43.8c2.6-8.5,5-17.1,6.6-25.8c0.6-3.2-0.7-7.2-2.2-10.3c-9.3-19.6-9.5-40.5-8.4-61.3
		c1.2-22.2,5.7-44.1,11.4-65.7c6.7-25,15-49.4,24.8-73.4c2-4.9,4-9.8,6.2-15.1c10.2,3.4,19.9,6.6,29.6,9.8c9.5,3.1,19,6.1,28.5,9.3
		c8.7,2.9,17.4,6,26.1,9c1.5,0.5,3,1.3,4.5,1.7c8.4,2.5,8.5,2.5,6.3,10.7c-8.7,32.1-18.4,63.9-32.1,94.3
		c-9.2,20.5-19.7,40.2-33.2,58.1c-9.9,13.1-21.1,25.1-36.2,32.5c-8,4-10.4,12.1-13.2,19.7c-4.5,12.1-8.7,24.3-12.9,36.5
		c-4.7,13.6-9.6,27.1-13.7,40.8c-3.2,10.9-1.5,21.7,6.6,30c5.2,5.3,11.8,9.2,17.8,13.7c2.2,1.7,4.4,3.3,6.6,5c3.8,2.9,3.2,5.5-0.5,8
		c-3,0-6,0-9,0c-2.4-0.6-4.9-1-7.3-1.7c-13.1-4.1-26.3-7.9-39.2-12.4c-16.3-5.6-33.4-9.6-46.5-21.9C98,510.3,98,508.7,98,507z
		 M184.8,288.1c-0.4,0.7-0.7,1.2-0.8,1.6c-3.3,18.5-5,37.3-3.8,56c0.6,8.9,2.8,18,6,26.5c3.9,10.5,13.7,15.9,21.9,12.5
		c6-2.5,11.8-6.3,16.5-10.8c16.4-15.9,27.9-35.3,39.3-54.9c2.5-4.3,4.6-8.7,6.8-12.8c-7.2,3.1-13.8,6.8-20.8,8.9
		c-13.7,4.1-26.3,2.2-36.3-9.3c-2.7-3.1-5.6-6.1-8.8-8.7C199,292.3,192.6,288.6,184.8,288.1z"/>
	<path class="st1" d="M441,548c-2.2-1.4-4.3-2.8-7.6-5c7.2-5.2,13.2-9.6,19.2-14c5.9-4.3,11.9-8.3,14.8-15.8
		c3.2-8.4,3.2-16.5,0.6-24.8c-4-12.8-8.2-25.5-12.4-38.2c-4.5-13.5-9.3-26.8-13.5-40.4c-2.4-7.8-6.6-13.3-14-17.6
		c-13.2-7.6-22.6-19.4-31.5-31.8c-10.3-14.4-19-29.5-25.9-45.6c-7.7-17.9-14-36.4-20.7-54.8c-2.9-7.9-5.2-16-7.4-24.1
		c-3.4-12.2-6.5-24.6-9.8-37.5c12.5-3.9,24.5-7.6,36.4-11.4c17.9-5.6,35.8-11.1,53.6-16.8c2.9-0.9,4.9-0.9,6.1,2.5
		c4.5,12.3,9.7,24.3,13.8,36.7c4.6,13.9,8.6,28.1,12.1,42.3c3.8,15.2,7.9,30.5,9.8,46.1c2,16.8,2.4,34,2.1,51
		c-0.2,13.6-4.3,26.8-9.7,39.4c-1.5,3.4-1.8,8-0.9,11.6c3.5,13.6,7.7,27,11.6,40.5c3.8,13,7.2,26.2,11.2,39.1
		c3.5,11.3,8.4,22,20.4,27c3.1,1.3,6.5,2.1,9.9,2.2c7.8,0.3,15.7,0,23.5,0.1c1.7,0,3.5,0.6,5.2,1c0,1.3,0,2.7,0,4
		c-1.8,1.7-3.4,4-5.6,5c-8.5,4.1-17,8.4-25.9,11.7c-12.7,4.6-25.7,8.4-38.6,12.2c-6.9,2-13.9,3.4-20.9,5.1C445,548,443,548,441,548z
		 M368.1,287.9c-0.4,0.3-0.8,0.5-1.1,0.8c0.5,1.5,0.9,3.1,1.5,4.5c6,12.4,11.6,25,18.1,37.2c9.4,17.6,20,34.5,35.1,47.9
		c4.6,4.1,10.4,7,15.9,9.9c3.6,1.9,7.5,0.7,9.7-2.7c2.9-4.5,6.1-9.2,7.6-14.3c5.7-19,4.2-38.5,3.9-58c0-0.4-0.5-0.7-0.9-1.3
		c-7.5,9.4-17.2,10.5-27.9,7.8c-17-4.2-32.1-12.4-46.7-21.9C378.2,294.6,373.2,291.2,368.1,287.9z"/>
	<path class="st2" d="M341,59c8.5,4.7,10.9,10.2,7.6,16.9c-2.1,4.3-5.8,6.6-10.3,6.6c-5.3,0-9.2-3.1-11.2-8.2
		c-1.7-4.4-0.2-8.1,2.6-11.4c1.2-1.5,2.9-2.6,4.3-3.9C336.3,59,338.7,59,341,59z"/>
	<path class="st1" d="M348.1,139c-5.7,0-10.6-4.5-10.8-10.2c-0.2-5.2,5.5-10.9,10.9-10.8c5.3,0.1,10.5,5.4,10.5,10.6
		C358.6,134.3,353.8,139,348.1,139z"/>
	<path class="st2" d="M270.7,141c-5.9,0-9.7-3.7-9.7-9.5c0-5.6,4.1-9.6,9.7-9.6c5.4,0.1,9.5,4.1,9.5,9.3
		C280.3,137.2,276.6,141,270.7,141z"/>
	<path class="st2" d="M304.7,95c5.3,0,9.3,4.1,9.3,9.5c0,5.2-4.3,9.6-9.4,9.5c-5.3-0.1-9.7-4.7-9.6-9.9
		C295.1,99,299.4,94.9,304.7,95z"/>
	<path class="st2" d="M340.5,108c-4.5-0.1-7.7-3.4-7.5-7.9c0.1-3.6,4.1-7.8,7.6-7.8c3.9,0,8.2,4.1,8.3,7.9
		C348.8,104.7,345.3,108.1,340.5,108z"/>
	<path class="st1" d="M395.4,148c-5.1,0-7.6-2.6-7.5-7.7c0.1-4.1,3.5-7.3,7.8-7.3c4.5,0,8.1,3.6,8,7.8
		C403.5,145.2,400.3,148,395.4,148z"/>
	<path class="st2" d="M296.4,170.1c-0.1-3.9,3-7.1,6.7-7.1c3.6,0,6.7,3,6.8,6.5c0.1,3.4-3.1,7-6.3,7.2
		C299.9,176.9,296.5,173.8,296.4,170.1z"/>
	<path class="st2" d="M304.4,131c4.5,0,6.1,2.7,6.5,6.3c0.3,2.9-3.3,6.5-6.3,6.5c-3,0-6.6-3.5-6.3-6.5
		C298.6,133.5,300.8,131.3,304.4,131z"/>
	<path class="st2" d="M285.3,150.9c3.4,0.5,5.7,2.3,5.7,6.1c0,3.6-2.7,6.2-6.4,6c-4.1-0.2-5.7-2.6-5.7-6.6
		C279,152.1,281.7,151.3,285.3,150.9z"/>
	<path class="st2" d="M333.8,145.1c3.2,0.3,5.2,2.6,5.4,6.4c0.1,3.9-3,6.2-5.9,5.8c-2.3-0.4-5.1-3.3-6-5.8
		C326.1,148.4,329.7,145.1,333.8,145.1z"/>
	<path class="st2" d="M374.4,134c-4.1,0.4-5.9-2.2-5.9-5.6c0-3.2,2-5.5,5.7-5.4c3.8,0.1,5.5,2.6,5.6,5.6
		C380,131.8,378.3,134.4,374.4,134z"/>
	<path class="st2" d="M262.2,161.2c1.3,1.9,3.8,4.1,3.4,5.7c-0.4,2-3.1,4.7-4.9,4.8c-1.7,0-4.7-2.7-5-4.6
		C255.3,164.2,257.4,161.8,262.2,161.2z"/>
	<path class="st2" d="M365.3,161.2c1.2,1.9,3.7,4,3.4,5.7c-0.3,1.9-3.1,3.4-4.7,5.1c-1.6-1.7-4.3-3.3-4.6-5.3
		c-0.3-1.6,2.3-3.7,3.5-5.5C363.6,161.2,364.4,161.2,365.3,161.2z"/>
	<path class="st2" d="M355.8,179c-2.7,2.1-4.7,4.6-5.8,4.3c-1.9-0.6-3.3-3-4.9-4.7c1.7-1.5,3.2-3.8,5.1-4.2
		C351.4,174.1,353.2,176.8,355.8,179z"/>
	<path class="st2" d="M393.8,160.1c1.9,3,4.1,4.8,3.9,6.3c-0.2,1.7-2.6,3-4.1,4.5c-1.5-1.6-3.9-3.1-4.3-4.9
		C389,164.7,391.6,162.9,393.8,160.1z"/>
	<path class="st2" d="M297.1,193.2c-2-2.8-3.6-4.1-4-5.7c-0.7-2.9,1.4-4.6,3.9-4.2c1.5,0.3,3.5,2.5,3.8,4.1
		C301,188.6,299,190.3,297.1,193.2z"/>
	<path class="st2" d="M371.5,152.7c-1.5,0.8-3.1,2.3-4.4,2.1c-1.3-0.2-3.5-2.5-3.2-3.3c0.5-1.5,2.2-3.4,3.6-3.6
		c1.2-0.2,2.7,1.8,4.1,2.8C371.6,151.4,371.6,152,371.5,152.7z"/>
</g>
</svg>
