<?xml version="1.0" encoding="utf-8"?>
<!-- Generator: Adobe Illustrator 22.1.0, SVG Export Plug-In . SVG Version: 6.00 Build 0)  -->
<svg version="1.1" id="Layer_0_xA0_Image_1_" xmlns="http://www.w3.org/2000/svg" xmlns:xlink="http://www.w3.org/1999/xlink"
	 x="0px" y="0px" viewBox="0 0 626 584" style="enable-background:new 0 0 626 584;" xml:space="preserve">
<style type="text/css">
	.st0{fill:#FEFEFE;}
	.st1{fill:#3C3561;}
	.st2{fill:#EF546B;}
	.st3{fill:#EF556C;}
	.st4{fill:#EF566D;}
	.st5{fill:#EF576E;}
	.st6{fill:#EF586F;}
	.st7{fill:#EF596F;}
	.st8{fill:#EF586E;}
	.st9{fill:#EF5B71;}
	.st10{fill:#EE576E;}
	.st11{fill:#EE5068;}
</style>
<g>
	<g>
		<path class="st0" d="M94,507c0-149.3,0-298.7,0-448c78.7,0,157.3,0,236,0c-1.5,1.3-3.1,2.4-4.3,3.9c-2.7,3.3-4.3,7-2.6,11.4
			c2,5.1,5.8,8.2,11.2,8.2c4.4,0,8.1-2.3,10.3-6.6c3.3-6.7,0.9-12.2-7.6-16.9c65.7,0,131.3,0,197,0c0,150.3,0,300.7,0,451
			c-1.7-0.3-3.5-0.9-5.2-1c-7.8-0.1-15.7,0.2-23.5-0.1c-3.3-0.1-6.8-0.9-9.9-2.2c-11.9-5-16.8-15.6-20.4-27
			c-4-13-7.5-26.1-11.2-39.1c-3.9-13.5-8.1-26.9-11.6-40.5c-0.9-3.6-0.6-8.2,0.9-11.6c5.4-12.7,9.4-25.8,9.7-39.4
			c0.3-17-0.1-34.1-2.1-51c-1.9-15.5-6-30.8-9.8-46.1c-3.5-14.2-7.6-28.4-12.1-42.3c-4.1-12.4-9.2-24.4-13.8-36.7
			c-1.2-3.3-3.2-3.4-6.1-2.5c-17.9,5.7-35.7,11.2-53.6,16.8c-12,3.7-23.9,7.5-36.4,11.4c3.4,12.9,6.4,25.2,9.8,37.5
			c2.2,8.1,4.5,16.2,7.4,24.1c6.6,18.3,13,36.8,20.7,54.8c6.9,16.1,15.7,31.2,25.9,45.6c8.9,12.4,18.3,24.1,31.5,31.8
			c7.4,4.3,11.5,9.8,14,17.6c4.2,13.5,9,26.9,13.5,40.4c4.2,12.7,8.4,25.5,12.4,38.2c2.6,8.3,2.6,16.4-0.6,24.8
			c-2.9,7.5-8.9,11.5-14.8,15.8c-6,4.4-12.1,8.8-19.2,14c3.2,2.1,5.4,3.6,7.6,5c-80.3,0-160.7,0-241,0c3.7-2.5,4.3-5.1,0.5-8
			c-2.2-1.7-4.4-3.4-6.6-5c-6-4.5-12.6-8.4-17.8-13.7c-8.2-8.3-9.8-19.1-6.6-30c4-13.8,9-27.3,13.7-40.8
			c4.2-12.2,8.5-24.4,12.9-36.5c2.8-7.6,5.2-15.7,13.2-19.7c15.2-7.5,26.3-19.4,36.2-32.5c13.5-17.9,24.1-37.6,33.2-58.1
			c13.6-30.5,23.4-62.2,32.1-94.3c2.2-8.2,2-8.2-6.3-10.7c-1.5-0.5-3-1.2-4.5-1.7c-8.7-3-17.3-6.1-26.1-9c-9.5-3.2-19-6.2-28.5-9.3
			c-9.7-3.2-19.5-6.4-29.6-9.8c-2.2,5.3-4.2,10.2-6.2,15.1c-9.8,23.9-18.2,48.3-24.8,73.4c-5.8,21.6-10.2,43.5-11.4,65.7
			c-1.2,20.8-0.9,41.7,8.4,61.3c1.5,3.1,2.8,7.1,2.2,10.3c-1.6,8.7-4.1,17.3-6.6,25.8c-4.4,14.7-9,29.3-13.9,43.8
			c-3.1,9.4-6.3,18.9-10.5,28c-2.9,6.3-8.3,10.7-15.3,12.9c-9.2,2.9-18.5,1.9-27.9,1.2C101.8,506.2,97.9,506.8,94,507z M344.1,139
			c5.7,0,10.5-4.7,10.6-10.4c0.1-5.2-5.2-10.5-10.5-10.6c-5.4-0.1-11.1,5.6-10.9,10.8C333.6,134.5,338.4,139,344.1,139z M266.7,141
			c5.9,0,9.6-3.8,9.5-9.7c-0.1-5.3-4.1-9.3-9.5-9.3c-5.6-0.1-9.7,4-9.7,9.6C257,137.3,260.8,141,266.7,141z M300.7,95
			c-5.3,0-9.6,4-9.7,9.1c-0.1,5.3,4.4,9.8,9.6,9.9c5.1,0.1,9.4-4.3,9.4-9.5C310,99.1,306,95,300.7,95z M336.5,108
			c4.8,0.1,8.3-3.3,8.3-7.9c0-3.8-4.3-7.9-8.3-7.9c-3.5,0-7.4,4.2-7.6,7.8C328.8,104.7,332,107.9,336.5,108z M391.4,148
			c4.8,0,8.1-2.8,8.3-7.2c0.2-4.2-3.5-7.8-8-7.8c-4.3,0-7.7,3.2-7.8,7.3C383.9,145.4,386.3,148,391.4,148z M292.4,170.1
			c0.1,3.8,3.5,6.9,7.2,6.6c3.2-0.2,6.3-3.8,6.3-7.2c-0.1-3.5-3.2-6.5-6.8-6.5C295.5,162.9,292.4,166.2,292.4,170.1z M300.4,131
			c-3.6,0.4-5.8,2.6-6.2,6.3c-0.3,3,3.4,6.5,6.3,6.5c3,0,6.7-3.5,6.3-6.5C306.5,133.7,304.8,131,300.4,131z M281.3,150.9
			c-3.6,0.4-6.3,1.3-6.4,5.5c0,3.9,1.5,6.4,5.7,6.6c3.7,0.2,6.4-2.4,6.4-6C287,153.2,284.7,151.4,281.3,150.9z M329.9,145.1
			c-4.1,0-7.7,3.3-6.6,6.4c0.9,2.4,3.7,5.4,6,5.8c2.9,0.5,6.1-1.9,5.9-5.8C335.1,147.7,333,145.3,329.9,145.1z M370.4,134
			c3.9,0.3,5.6-2.2,5.4-5.4c-0.2-3-1.9-5.6-5.6-5.6c-3.7-0.1-5.7,2.2-5.7,5.4C364.5,131.8,366.3,134.4,370.4,134z M258.2,161.2
			c-4.8,0.6-6.9,3-6.5,5.9c0.3,1.9,3.3,4.6,5,4.6c1.8,0,4.5-2.8,4.9-4.8C261.9,165.3,259.4,163.1,258.2,161.2z M361.3,161.2
			c-0.8,0-1.6,0-2.4-0.1c-1.3,1.9-3.8,3.9-3.5,5.5c0.3,2,3,3.5,4.6,5.3c1.7-1.7,4.4-3.2,4.7-5.1C365,165.2,362.5,163.1,361.3,161.2z
			 M351.8,179c-2.6-2.3-4.4-4.9-5.6-4.6c-1.9,0.4-3.4,2.7-5.1,4.2c1.6,1.7,2.9,4,4.9,4.7C347.1,183.6,349.1,181.1,351.8,179z
			 M389.9,160.1c-2.3,2.8-4.8,4.7-4.5,5.9c0.4,1.9,2.8,3.3,4.3,4.9c1.5-1.5,3.8-2.9,4.1-4.5C393.9,164.9,391.8,163,389.9,160.1z
			 M293.1,193.2c1.9-2.9,3.9-4.6,3.7-5.9c-0.3-1.6-2.2-3.8-3.8-4.1c-2.5-0.4-4.6,1.3-3.9,4.2C289.5,189.1,291.1,190.4,293.1,193.2z
			 M367.6,152.7c0-0.7,0.1-1.3,0.1-2c-1.4-1-2.9-3-4.1-2.8c-1.4,0.2-3.2,2.1-3.6,3.6c-0.2,0.7,1.9,3.1,3.2,3.3
			C364.5,155,366.1,153.5,367.6,152.7z"/>
		<path class="st1" d="M94,507c3.9-0.2,7.8-0.8,11.6-0.6c9.3,0.6,18.6,1.7,27.9-1.2c7-2.2,12.4-6.7,15.3-12.9
			c4.2-9,7.3-18.5,10.5-28c4.8-14.5,9.5-29.2,13.9-43.8c2.6-8.5,5-17.1,6.6-25.8c0.6-3.2-0.7-7.2-2.2-10.3
			c-9.3-19.6-9.5-40.5-8.4-61.3c1.2-22.2,5.7-44.1,11.4-65.7c6.7-25,15-49.4,24.8-73.4c2-4.9,4-9.8,6.2-15.1
			c10.2,3.4,19.9,6.6,29.6,9.8c9.5,3.1,19,6.1,28.5,9.3c8.7,2.9,17.4,6,26.1,9c1.5,0.5,3,1.3,4.5,1.7c8.4,2.5,8.5,2.5,6.3,10.7
			c-8.7,32.1-18.4,63.9-32.1,94.3c-9.2,20.5-19.7,40.2-33.2,58.1c-9.9,13.1-21.1,25.1-36.2,32.5c-8,4-10.4,12.1-13.2,19.7
			c-4.5,12.1-8.7,24.3-12.9,36.5c-4.7,13.6-9.6,27.1-13.7,40.8c-3.2,10.9-1.5,21.7,6.6,30c5.2,5.3,11.8,9.2,17.8,13.7
			c2.2,1.7,4.4,3.3,6.6,5c3.8,2.9,3.2,5.5-0.5,8c-3,0-6,0-9,0c-2.4-0.6-4.9-1-7.3-1.7c-13.1-4.1-26.3-7.9-39.2-12.4
			c-16.3-5.6-33.4-9.6-46.5-21.9C94,510.3,94,508.7,94,507z M180.8,288.1c-0.4,0.7-0.7,1.2-0.8,1.6c-3.3,18.5-5,37.3-3.8,56
			c0.6,8.9,2.8,18,6,26.5c3.9,10.5,13.7,15.9,21.9,12.5c6-2.5,11.8-6.3,16.5-10.8c16.4-15.9,27.9-35.3,39.3-54.9
			c2.5-4.3,4.6-8.7,6.8-12.8c-7.2,3.1-13.8,6.8-20.8,8.9c-13.7,4.1-26.3,2.2-36.3-9.3c-2.7-3.1-5.6-6.1-8.8-8.7
			C195,292.3,188.6,288.6,180.8,288.1z"/>
		<path class="st1" d="M437,548c-2.2-1.4-4.3-2.8-7.6-5c7.2-5.2,13.2-9.6,19.2-14c5.9-4.3,11.9-8.3,14.8-15.8
			c3.2-8.4,3.2-16.5,0.6-24.8c-4-12.8-8.2-25.5-12.4-38.2c-4.5-13.5-9.3-26.8-13.5-40.4c-2.4-7.8-6.6-13.3-14-17.6
			c-13.2-7.6-22.6-19.4-31.5-31.8c-10.3-14.4-19-29.5-25.9-45.6c-7.7-17.9-14-36.4-20.7-54.8c-2.9-7.9-5.2-16-7.4-24.1
			c-3.4-12.2-6.5-24.6-9.8-37.5c12.5-3.9,24.5-7.6,36.4-11.4c17.9-5.6,35.8-11.1,53.6-16.8c2.9-0.9,4.9-0.9,6.1,2.5
			c4.5,12.3,9.7,24.3,13.8,36.7c4.6,13.9,8.6,28.1,12.1,42.3c3.8,15.2,7.9,30.5,9.8,46.1c2,16.8,2.4,34,2.1,51
			c-0.2,13.6-4.3,26.8-9.7,39.4c-1.5,3.4-1.8,8-0.9,11.6c3.5,13.6,7.7,27,11.6,40.5c3.8,13,7.2,26.2,11.2,39.1
			c3.5,11.3,8.4,22,20.4,27c3.1,1.3,6.5,2.1,9.9,2.2c7.8,0.3,15.7,0,23.5,0.1c1.7,0,3.5,0.6,5.2,1c0,1.3,0,2.7,0,4
			c-1.8,1.7-3.4,4-5.6,5c-8.5,4.1-17,8.4-25.9,11.7c-12.7,4.6-25.7,8.4-38.6,12.2c-6.9,2-13.9,3.4-20.9,5.1C441,548,439,548,437,548
			z M364.1,287.9c-0.4,0.3-0.8,0.5-1.1,0.8c0.5,1.5,0.9,3.1,1.5,4.5c6,12.4,11.6,25,18.1,37.2c9.4,17.6,20,34.5,35.1,47.9
			c4.6,4.1,10.4,7,15.9,9.9c3.6,1.9,7.5,0.7,9.7-2.7c2.9-4.5,6.1-9.2,7.6-14.3c5.7-19,4.2-38.5,3.9-58c0-0.4-0.5-0.7-0.9-1.3
			c-7.5,9.4-17.2,10.5-27.9,7.8c-17-4.2-32.1-12.4-46.7-21.9C374.3,294.6,369.2,291.2,364.1,287.9z"/>
		<path class="st0" d="M94,512c13.1,12.3,30.2,16.3,46.5,21.9c13,4.5,26.1,8.3,39.2,12.4c2.4,0.7,4.9,1.2,7.3,1.7
			c-30.9,0-61.8,0-93,0C94,536,94,524,94,512z"/>
		<path class="st0" d="M443,548c7-1.7,14-3,20.9-5.1c13-3.8,25.9-7.7,38.6-12.2c8.9-3.2,17.4-7.5,25.9-11.7c2.2-1.1,3.7-3.3,5.6-5
			c0,11.3,0,22.7,0,34C503.7,548,473.3,548,443,548z"/>
		<path class="st2" d="M337,59c8.5,4.7,10.9,10.2,7.6,16.9c-2.1,4.3-5.8,6.6-10.3,6.6c-5.3,0-9.2-3.1-11.2-8.2
			c-1.7-4.4-0.2-8.1,2.6-11.4c1.2-1.5,2.9-2.6,4.3-3.9C332.3,59,334.7,59,337,59z"/>
		<path class="st3" d="M344.1,139c-5.7,0-10.6-4.5-10.8-10.2c-0.2-5.2,5.5-10.9,10.9-10.8c5.3,0.1,10.5,5.4,10.5,10.6
			C354.6,134.3,349.8,139,344.1,139z"/>
		<path class="st2" d="M266.7,141c-5.9,0-9.7-3.7-9.7-9.5c0-5.6,4.1-9.6,9.7-9.6c5.4,0.1,9.5,4.1,9.5,9.3
			C276.3,137.2,272.6,141,266.7,141z"/>
		<path class="st2" d="M300.7,95c5.3,0,9.3,4.1,9.3,9.5c0,5.2-4.3,9.6-9.4,9.5c-5.3-0.1-9.7-4.7-9.6-9.9
			C291.1,99,295.4,94.9,300.7,95z"/>
		<path class="st4" d="M336.5,108c-4.5-0.1-7.7-3.4-7.5-7.9c0.1-3.6,4.1-7.8,7.6-7.8c3.9,0,8.2,4.1,8.3,7.9
			C344.8,104.7,341.3,108.1,336.5,108z"/>
		<path class="st3" d="M391.4,148c-5.1,0-7.6-2.6-7.5-7.7c0.1-4.1,3.5-7.3,7.8-7.3c4.5,0,8.1,3.6,8,7.8
			C399.5,145.2,396.3,148,391.4,148z"/>
		<path class="st5" d="M292.4,170.1c-0.1-3.9,3-7.1,6.7-7.1c3.6,0,6.7,3,6.8,6.5c0.1,3.4-3.1,7-6.3,7.2
			C295.9,176.9,292.5,173.8,292.4,170.1z"/>
		<path class="st6" d="M300.4,131c4.5,0,6.1,2.7,6.5,6.3c0.3,2.9-3.3,6.5-6.3,6.5c-3,0-6.6-3.5-6.3-6.5
			C294.6,133.5,296.8,131.3,300.4,131z"/>
		<path class="st3" d="M281.3,150.9c3.4,0.5,5.7,2.3,5.7,6.1c0,3.6-2.7,6.2-6.4,6c-4.1-0.2-5.7-2.6-5.7-6.6
			C275,152.1,277.7,151.3,281.3,150.9z"/>
		<path class="st7" d="M329.9,145.1c3.2,0.3,5.2,2.6,5.4,6.4c0.1,3.9-3,6.2-5.9,5.8c-2.3-0.4-5.1-3.3-6-5.8
			C322.1,148.4,325.8,145.1,329.9,145.1z"/>
		<path class="st4" d="M370.4,134c-4.1,0.4-5.9-2.2-5.9-5.6c0-3.2,2-5.5,5.7-5.4c3.8,0.1,5.5,2.6,5.6,5.6
			C376,131.8,374.3,134.4,370.4,134z"/>
		<path class="st8" d="M258.2,161.2c1.3,1.9,3.8,4.1,3.4,5.7c-0.4,2-3.1,4.7-4.9,4.8c-1.7,0-4.7-2.7-5-4.6
			C251.3,164.2,253.4,161.8,258.2,161.2z"/>
		<path class="st5" d="M361.3,161.2c1.2,1.9,3.7,4,3.4,5.7c-0.3,1.9-3.1,3.4-4.7,5.1c-1.6-1.7-4.3-3.3-4.6-5.3
			c-0.3-1.6,2.3-3.7,3.5-5.5C359.7,161.2,360.5,161.2,361.3,161.2z"/>
		<path class="st9" d="M351.8,179c-2.7,2.1-4.7,4.6-5.8,4.3c-1.9-0.6-3.3-3-4.9-4.7c1.7-1.5,3.2-3.8,5.1-4.2
			C347.4,174.1,349.2,176.8,351.8,179z"/>
		<path class="st10" d="M389.9,160.1c1.9,3,4.1,4.8,3.9,6.3c-0.2,1.7-2.6,3-4.1,4.5c-1.5-1.6-3.9-3.1-4.3-4.9
			C385,164.7,387.6,162.9,389.9,160.1z"/>
		<path class="st6" d="M293.1,193.2c-2-2.8-3.6-4.1-4-5.7c-0.7-2.9,1.4-4.6,3.9-4.2c1.5,0.3,3.5,2.5,3.8,4.1
			C297,188.6,295,190.3,293.1,193.2z"/>
		<path class="st6" d="M367.6,152.7c-1.5,0.8-3.1,2.3-4.4,2.1c-1.3-0.2-3.5-2.5-3.2-3.3c0.5-1.5,2.2-3.4,3.6-3.6
			c1.2-0.2,2.7,1.8,4.1,2.8C367.6,151.4,367.6,152,367.6,152.7z"/>
		<path class="st11" d="M180.8,288.1c7.8,0.5,14.1,4.2,19.9,9c3.2,2.6,6.1,5.6,8.8,8.7c10,11.4,22.6,13.4,36.3,9.3
			c7-2.1,13.6-5.7,20.8-8.9c-2.2,4.1-4.3,8.6-6.8,12.8c-11.3,19.6-22.9,39-39.3,54.9c-4.7,4.5-10.5,8.3-16.5,10.8
			c-8.2,3.4-18-2-21.9-12.5c-3.1-8.4-5.4-17.5-6-26.5c-1.2-18.8,0.5-37.5,3.8-56C180.1,289.2,180.5,288.8,180.8,288.1z"/>
		<path class="st11" d="M364.1,287.9c5.1,3.3,10.2,6.7,15.3,10c14.6,9.4,29.7,17.7,46.7,21.9c10.7,2.6,20.4,1.6,27.9-7.8
			c0.4,0.5,0.9,0.9,0.9,1.3c0.3,19.4,1.7,39-3.9,58c-1.5,5.1-4.6,9.8-7.6,14.3c-2.2,3.4-6.1,4.6-9.7,2.7c-5.5-2.9-11.3-5.8-15.9-9.9
			c-15.1-13.4-25.7-30.3-35.1-47.9c-6.5-12.1-12.1-24.7-18.1-37.2c-0.7-1.4-1-3-1.5-4.5C363.4,288.4,363.7,288.2,364.1,287.9z"/>
	</g>
</g>
</svg>
