<?xml version="1.0" encoding="utf-8"?>
<!-- Generator: Adobe Illustrator 22.1.0, SVG Export Plug-In . SVG Version: 6.00 Build 0)  -->
<svg version="1.1" id="Layer_0_xA0_Image_1_" xmlns="http://www.w3.org/2000/svg" xmlns:xlink="http://www.w3.org/1999/xlink"
	 x="0px" y="0px" viewBox="0 0 626 584" style="enable-background:new 0 0 626 584;" xml:space="preserve">
<style type="text/css">
	.st0{fill:#3B3561;}
	.st1{fill:#FFFFFF;}
	.st2{fill:none;}
</style>
<g>
	<path class="st0" d="M341.1,135c5.7,0,10.5-4.7,10.6-10.4c0.1-5.2-5.2-10.5-10.5-10.6c-5.4-0.1-11.1,5.6-10.9,10.8
		C330.6,130.5,335.4,135.1,341.1,135z M263.7,137c5.9,0,9.6-3.8,9.5-9.7c-0.1-5.3-4.1-9.3-9.5-9.3c-5.6-0.1-9.7,4-9.7,9.6
		C254,133.3,257.8,137.1,263.7,137z M297.7,91c-5.3,0-9.6,4-9.7,9.1c-0.1,5.3,4.4,9.8,9.6,9.9c5.1,0.1,9.4-4.3,9.4-9.5
		C307,95.1,303,91.1,297.7,91z M333.5,104c4.8,0.1,8.3-3.3,8.3-7.9c0-3.8-4.3-7.9-8.3-7.9c-3.5,0-7.4,4.2-7.6,7.8
		C325.9,100.7,329,104,333.5,104z M388.5,144c4.8,0,8.1-2.8,8.3-7.2c0.2-4.2-3.5-7.8-8-7.8c-4.3,0-7.7,3.2-7.8,7.3
		C380.9,141.4,383.4,144,388.5,144z M289.5,166.1c0.1,3.8,3.5,6.9,7.2,6.6c3.2-0.2,6.3-3.8,6.3-7.2c-0.1-3.5-3.2-6.5-6.8-6.5
		C292.5,159,289.4,162.2,289.5,166.1z M297.4,127c-3.6,0.4-5.8,2.6-6.2,6.3c-0.3,3,3.4,6.5,6.3,6.5c3,0,6.7-3.5,6.3-6.5
		C303.5,129.7,301.8,127,297.4,127z M278.3,146.9c-3.6,0.4-6.3,1.3-6.4,5.5c0,3.9,1.5,6.4,5.7,6.6c3.7,0.2,6.4-2.4,6.4-6
		C284,149.2,281.7,147.4,278.3,146.9z M326.9,141.1c-4.1,0-7.7,3.3-6.6,6.4c0.9,2.4,3.7,5.4,6,5.8c2.9,0.5,6.1-1.9,5.9-5.8
		C332.1,143.7,330.1,141.4,326.9,141.1z M367.4,130c3.9,0.3,5.6-2.2,5.4-5.4c-0.2-3-1.9-5.6-5.6-5.6c-3.7-0.1-5.7,2.2-5.7,5.4
		C361.5,127.8,363.3,130.4,367.4,130z M255.2,157.2c-4.8,0.6-6.9,3-6.5,5.9c0.3,1.9,3.3,4.6,5,4.6c1.8,0,4.5-2.8,4.9-4.8
		C258.9,161.3,256.4,159.1,255.2,157.2z M358.3,157.2c-0.8,0-1.6,0-2.4-0.1c-1.3,1.9-3.8,3.9-3.5,5.5c0.3,2,3,3.5,4.6,5.3
		c1.7-1.7,4.4-3.2,4.7-5.1C362,161.2,359.5,159.1,358.3,157.2z M348.8,175c-2.6-2.3-4.4-4.9-5.6-4.6c-1.9,0.4-3.4,2.7-5.1,4.2
		c1.6,1.7,2.9,4,4.9,4.7C344.1,179.7,346.1,177.1,348.8,175z M386.9,156.1c-2.3,2.8-4.8,4.7-4.5,5.9c0.4,1.9,2.8,3.3,4.3,4.9
		c1.5-1.5,3.8-2.9,4.1-4.5C391,160.9,388.8,159,386.9,156.1z M290.1,189.2c1.9-2.9,3.9-4.6,3.7-5.9c-0.3-1.6-2.2-3.8-3.8-4.1
		c-2.5-0.4-4.6,1.3-3.9,4.2C286.5,185.1,288.1,186.4,290.1,189.2z M364.6,148.7c0-0.7,0.1-1.3,0.1-2c-1.4-1-2.9-3-4.1-2.8
		c-1.4,0.2-3.2,2.1-3.6,3.6c-0.2,0.7,1.9,3.1,3.2,3.3C361.5,151,363.1,149.5,364.6,148.7z"/>
	<path class="st1" d="M91,503c3.9-0.2,7.8-0.8,11.6-0.6c9.3,0.6,18.6,1.7,27.9-1.2c7-2.2,12.4-6.7,15.3-12.9c4.2-9,7.3-18.5,10.5-28
		c4.8-14.5,9.5-29.2,13.9-43.8c2.6-8.5,5-17.1,6.6-25.8c0.6-3.2-0.7-7.2-2.2-10.3c-9.3-19.6-9.5-40.5-8.4-61.3
		c1.2-22.2,5.7-44.1,11.4-65.7c6.7-25,15-49.4,24.8-73.4c2-4.9,4-9.8,6.2-15.1c10.2,3.4,19.9,6.6,29.6,9.8c9.5,3.1,19,6.1,28.5,9.3
		c8.7,2.9,17.4,6,26.1,9c1.5,0.5,3,1.3,4.5,1.7c8.4,2.5,8.5,2.5,6.3,10.7c-8.7,32.1-18.4,63.9-32.1,94.3
		c-9.2,20.5-19.7,40.2-33.2,58.1c-9.9,13.1-21.1,25.1-36.2,32.5c-8,4-10.4,12.1-13.2,19.7c-4.5,12.1-8.7,24.3-12.9,36.5
		c-4.7,13.6-9.6,27.1-13.7,40.8c-3.2,10.9-1.5,21.7,6.6,30c5.2,5.3,11.8,9.2,17.8,13.7c2.2,1.7,4.4,3.3,6.6,5c3.8,2.9,3.2,5.5-0.5,8
		c-3,0-6,0-9,0c-2.4-0.6-4.9-1-7.3-1.7c-13.1-4.1-26.3-7.9-39.2-12.4c-16.3-5.6-33.4-9.6-46.5-21.9C91,506.3,91,504.7,91,503z
		 M177.8,284.1c-0.4,0.7-0.7,1.2-0.8,1.6c-3.3,18.5-5,37.3-3.8,56c0.6,8.9,2.8,18,6,26.5c3.9,10.5,13.7,15.9,21.9,12.5
		c6-2.5,11.8-6.3,16.5-10.8c16.4-15.9,27.9-35.3,39.3-54.9c2.5-4.3,4.6-8.7,6.8-12.8c-7.2,3.1-13.8,6.8-20.8,8.9
		c-13.7,4.1-26.3,2.2-36.3-9.3c-2.7-3.1-5.6-6.1-8.8-8.7C192,288.3,185.6,284.6,177.8,284.1z"/>
	<path class="st1" d="M434,544c-2.2-1.4-4.3-2.8-7.6-5c7.2-5.2,13.2-9.6,19.2-14c5.9-4.3,11.9-8.3,14.8-15.8
		c3.2-8.4,3.2-16.5,0.6-24.8c-4-12.8-8.2-25.5-12.4-38.2c-4.5-13.5-9.3-26.8-13.5-40.4c-2.4-7.8-6.6-13.3-14-17.6
		c-13.2-7.6-22.6-19.4-31.5-31.8c-10.3-14.4-19-29.5-25.9-45.6c-7.7-17.9-14-36.4-20.7-54.8c-2.9-7.9-5.2-16-7.4-24.1
		c-3.4-12.2-6.5-24.6-9.8-37.5c12.5-3.9,24.5-7.6,36.4-11.4c17.9-5.6,35.8-11.1,53.6-16.8c2.9-0.9,4.9-0.9,6.1,2.5
		c4.5,12.3,9.7,24.3,13.8,36.7c4.6,13.9,8.6,28.1,12.1,42.3c3.8,15.2,7.9,30.5,9.8,46.1c2,16.8,2.4,34,2.1,51
		c-0.2,13.6-4.3,26.8-9.7,39.4c-1.5,3.4-1.8,8-0.9,11.6c3.5,13.6,7.7,27,11.6,40.5c3.8,13,7.2,26.2,11.2,39.1
		c3.5,11.3,8.4,22,20.4,27c3.1,1.3,6.5,2.1,9.9,2.2c7.8,0.3,15.7,0,23.5,0.1c1.7,0,3.5,0.6,5.2,1c0,1.3,0,2.7,0,4
		c-1.8,1.7-3.4,4-5.6,5c-8.5,4.1-17,8.4-25.9,11.7c-12.7,4.6-25.7,8.4-38.6,12.2c-6.9,2-13.9,3.4-20.9,5.1C438,544,436,544,434,544z
		 M361.1,283.9c-0.4,0.3-0.8,0.5-1.1,0.8c0.5,1.5,0.9,3.1,1.5,4.5c6,12.4,11.6,25,18.1,37.2c9.4,17.6,20,34.5,35.1,47.9
		c4.6,4.1,10.4,7,15.9,9.9c3.6,1.9,7.5,0.7,9.7-2.7c2.9-4.5,6.1-9.2,7.6-14.3c5.7-19,4.2-38.5,3.9-58c0-0.4-0.5-0.7-0.9-1.3
		c-7.5,9.4-17.2,10.5-27.9,7.8c-17-4.2-32.1-12.4-46.7-21.9C371.3,290.6,366.2,287.3,361.1,283.9z"/>
	<path class="st0" d="M334,55c8.5,4.7,10.9,10.2,7.6,16.9c-2.1,4.3-5.8,6.6-10.3,6.6c-5.3,0-9.2-3.1-11.2-8.2
		c-1.7-4.4-0.2-8.1,2.6-11.4c1.2-1.5,2.9-2.6,4.3-3.9C329.3,55,331.7,55,334,55z"/>
	<path class="st0" d="M341.1,135c-5.7,0-10.6-4.5-10.8-10.2c-0.2-5.2,5.5-10.9,10.9-10.8c5.3,0.1,10.5,5.4,10.5,10.6
		C351.6,130.4,346.9,135,341.1,135z"/>
	<path class="st2" d="M263.7,137c-5.9,0-9.7-3.7-9.7-9.5c0-5.6,4.1-9.6,9.7-9.6c5.4,0.1,9.5,4.1,9.5,9.3
		C273.3,133.2,269.6,137,263.7,137z"/>
	<path class="st2" d="M297.7,91c5.3,0,9.3,4.1,9.3,9.5c0,5.2-4.3,9.6-9.4,9.5c-5.3-0.1-9.7-4.7-9.6-9.9C288.1,95,292.4,91,297.7,91z
		"/>
	<path class="st2" d="M333.5,104c-4.5-0.1-7.7-3.4-7.5-7.9c0.1-3.6,4.1-7.8,7.6-7.8c3.9,0,8.2,4.1,8.3,7.9
		C341.8,100.8,338.3,104.1,333.5,104z"/>
	<path class="st0" d="M388.5,144c-5.1,0-7.6-2.6-7.5-7.7c0.1-4.1,3.5-7.3,7.8-7.3c4.5,0,8.1,3.6,8,7.8
		C396.5,141.2,393.3,144.1,388.5,144z"/>
	<path class="st2" d="M289.5,166.1c-0.1-3.9,3-7.1,6.7-7.1c3.6,0,6.7,3,6.8,6.5c0.1,3.4-3.1,7-6.3,7.2
		C292.9,173,289.5,169.9,289.5,166.1z"/>
	<path class="st2" d="M297.4,127c4.5,0,6.1,2.7,6.5,6.3c0.3,2.9-3.3,6.5-6.3,6.5c-3,0-6.6-3.5-6.3-6.5
		C291.6,129.6,293.8,127.3,297.4,127z"/>
	<path class="st2" d="M278.3,146.9c3.4,0.5,5.7,2.3,5.7,6.1c0,3.6-2.7,6.2-6.4,6c-4.1-0.2-5.7-2.6-5.7-6.6
		C272,148.2,274.8,147.3,278.3,146.9z"/>
	<path class="st2" d="M326.9,141.1c3.2,0.3,5.2,2.6,5.4,6.4c0.1,3.9-3,6.2-5.9,5.8c-2.3-0.4-5.1-3.3-6-5.8
		C319.1,144.4,322.8,141.1,326.9,141.1z"/>
	<path class="st2" d="M367.4,130c-4.1,0.4-5.9-2.2-5.9-5.6c0-3.2,2-5.5,5.7-5.4c3.8,0.1,5.5,2.6,5.6,5.6
		C373,127.8,371.4,130.4,367.4,130z"/>
	<path class="st2" d="M255.2,157.2c1.3,1.9,3.8,4.1,3.4,5.7c-0.4,2-3.1,4.7-4.9,4.8c-1.7,0-4.7-2.7-5-4.6
		C248.3,160.2,250.4,157.8,255.2,157.2z"/>
	<path class="st2" d="M358.3,157.2c1.2,1.9,3.7,4,3.4,5.7c-0.3,1.9-3.1,3.4-4.7,5.1c-1.6-1.7-4.3-3.3-4.6-5.3
		c-0.3-1.6,2.3-3.7,3.5-5.5C356.7,157.2,357.5,157.2,358.3,157.2z"/>
	<path class="st2" d="M348.8,175c-2.7,2.1-4.7,4.6-5.8,4.3c-1.9-0.6-3.3-3-4.9-4.7c1.7-1.5,3.2-3.8,5.1-4.2
		C344.4,170.2,346.2,172.8,348.8,175z"/>
	<path class="st2" d="M386.9,156.1c1.9,3,4.1,4.8,3.9,6.3c-0.2,1.7-2.6,3-4.1,4.5c-1.5-1.6-3.9-3.1-4.3-4.9
		C382.1,160.7,384.6,158.9,386.9,156.1z"/>
	<path class="st2" d="M290.1,189.2c-2-2.8-3.6-4.1-4-5.7c-0.7-2.9,1.4-4.6,3.9-4.2c1.5,0.3,3.5,2.5,3.8,4.1
		C294,184.6,292,186.3,290.1,189.2z"/>
	<path class="st2" d="M364.6,148.7c-1.5,0.8-3.1,2.3-4.4,2.1c-1.3-0.2-3.5-2.5-3.2-3.3c0.5-1.5,2.2-3.4,3.6-3.6
		c1.2-0.2,2.7,1.8,4.1,2.8C364.6,147.4,364.6,148,364.6,148.7z"/>
</g>
</svg>
