<?xml version="1.0" encoding="utf-8"?>
<!-- Generator: Adobe Illustrator 22.1.0, SVG Export Plug-In . SVG Version: 6.00 Build 0)  -->
<svg version="1.1" id="Layer_1" xmlns="http://www.w3.org/2000/svg" xmlns:xlink="http://www.w3.org/1999/xlink" x="0px" y="0px"
	 viewBox="0 0 261.6 262.4" style="enable-background:new 0 0 261.6 262.4;" xml:space="preserve">
<style type="text/css">
	.st0{fill:#FFFFFF;}
</style>
<g>
	<path class="st0" d="M103.1,83.7c0.6,8-3.1,14.8-11.3,19.3c-4.7,2.6-6.1,7-6.2,12.3c-0.4,29.6,2.6,58.9,6.6,88.1
		c0.6,4.3,0.4,8-3.7,10.5c-4.6,2.7-9.2,2.8-13.7,0c-4-2.5-4.2-6.2-3.5-10.5c4.5-28.5,8-57,8.5-85.9c0.1-7.2-1.8-12.5-8.4-16.1
		c-5.3-2.9-8.1-8.1-8.6-14C61.8,74.9,65.2,63.5,73,53.7c6.5-8.1,13.4-8,19.8,0.1C99.5,62.2,103,71.7,103.1,83.7z"/>
	<path class="st0" d="M129.1,50.2c0.5,12.7,0.9,25.4,1.4,38.1c0.7,0,1.4,0.1,2.1,0.1c0.3-1.9,0.8-3.8,0.9-5.7
		c0.1-9.3,0.1-18.6,0.2-28c0-1.6,0.4-3.1,0.6-4.6c0.6,0,1.2,0,1.8,0.1c0.4,13,0.9,25.9,1.3,38.9c0.7,0,1.4,0.1,2.1,0.1
		c0.3-1.7,0.9-3.5,1-5.2c0.1-9.7,0.1-19.3,0.2-29c0-1.6,0.4-3.2,0.6-4.8c0.6,0,1.2,0,1.8-0.1c0.5,12.7,1,25.3,1.5,38
		c0.9,0,1.9,0,2.8,0c0-12.6,0-25.3,0-37.9c0.7,0,1.5-0.1,2.2-0.1c0.4,3.3,1.2,6.6,1.3,9.9c0.2,11.7,0.5,23.3,0.1,35
		c-0.1,3-1.7,6.6-3.8,8.7c-3.6,3.6-5.2,7.4-5.1,12.4c0.5,29.2,3.8,58.1,8.6,86.9c0.7,4,0.7,7.7-3.1,10.3c-3.8,2.6-8,3.3-12.3,1.3
		c-4.5-2.1-6.1-5.4-5.6-10.5c2.3-24,4.4-48.1,6.4-72.1c0.5-5.6,0-11.3,0.2-17c0.1-4.3-1.3-7.9-4.7-10.5c-3.5-2.6-4.8-6.1-4.8-10.4
		c0.1-13.1,0.1-26.3,0.1-39.4c0-1.5,0.4-2.9,0.5-4.4C127.9,50.3,128.5,50.3,129.1,50.2z"/>
	<path class="st0" d="M201,90.8c0,12.6-0.1,25.3,0.1,37.9c0,3.8-1.2,5.3-5.2,5.3c-9.2,0-9.3,0.2-10.7-8.7
		c-3.2-20.3-3.5-40.7-1.3-61.1c0.8-7.2,4.2-12.5,11.1-15.3c4.9-1.9,5.9-1.2,6,4C201,65.5,201,78.1,201,90.8z"/>
	<path class="st0" d="M188.3,138.4c1-0.4,1.3-0.7,1.7-0.7c10.7-1.2,11-1,11,9.6c0,19.8,0,39.6-0.1,59.3c0,2.2-0.1,5.3-1.5,6.5
		c-1.8,1.5-5.1,2.5-7.4,2.1c-3.6-0.7-4.1-4.2-4-7.6c0.6-15.3,1.3-30.5,1.5-45.8C189.7,154,188.8,146.2,188.3,138.4z"/>
</g>
</svg>
